<?xml version="1.0" encoding="UTF-8"?><svg id="a" xmlns="http://www.w3.org/2000/svg" xmlns:xlink="http://www.w3.org/1999/xlink" viewBox="0 0 605.46 311.82"><defs><style>.c{stroke:#662d91;stroke-width:3px;}.c,.d,.e{stroke-miterlimit:10;}.c,.f{fill:none;}.d{stroke:#231f20;}.d,.g{fill:#cbdb2a;}.h{clip-path:url(#b);}.e{fill:#fdb913;stroke:#cbdb2a;}.i{fill:#231f20;}</style><clipPath id="b"><circle class="f" cx="302.73" cy="155.91" r="85.48" transform="translate(-21.58 259.73) rotate(-45)"/></clipPath></defs><g><circle class="e" cx="516.57" cy="155.91" r="85.48"/><path class="g" d="M456.04,95.37v121.07h121.07V95.37h-121.07Zm60.54,117.59c-31.51,0-57.05-25.54-57.05-57.05s25.54-57.05,57.05-57.05,57.05,25.54,57.05,57.05-25.54,57.05-57.05,57.05Z"/></g><g><circle class="d" cx="88.89" cy="155.91" r="85.48"/><polygon class="i" points="88.89 71.09 26.27 213.92 151.51 213.92 88.89 71.09"/></g><g><circle class="i" cx="302.73" cy="155.91" r="85.48" transform="translate(-21.58 259.73) rotate(-45)"/><g class="h"><g><line class="c" x1="146.82" y1="259.85" x2="458.64" y2="259.85"/><line class="c" x1="146.82" y1="207.88" x2="458.64" y2="207.88"/><line class="c" x1="146.82" y1="155.91" x2="458.64" y2="155.91"/><line class="c" x1="146.82" y1="103.94" x2="458.64" y2="103.94"/><line class="c" x1="146.82" y1="51.97" x2="458.64" y2="51.97"/><line class="c" x1="406.67" x2="406.67" y2="311.82"/><line class="c" x1="354.7" x2="354.7" y2="311.82"/><line class="c" x1="302.73" x2="302.73" y2="311.82"/><line class="c" x1="250.76" x2="250.76" y2="311.82"/><line class="c" x1="198.79" x2="198.79" y2="311.82"/></g></g></g><rect class="f" y="69.45" width="605.46" height="172.91"/></svg>